PathFileType	4	(X/Y/Z)	c:/Users/goper/Files/vsCode/490R/osim_files/C03/C03_Slow_06.trc
DataRate	CameraRate	NumFrames	NumMarkers	Units                	OrigDataRate	OrigDataStartFrame	OrigNumFrames
250.00	250.00	7	36	mm	250.0	1273	2545
                Frame#	Time	LPSIS			LASIS			LTH1			LTH2			LTH3			LTH4			LLFE			LMFE			LSH1			LSH2			LSH3			LSH4			LLMAL			LMMAL			LCAL			LMTP5			LTOE			LMTP1			RPSIS			RASIS			RTH1			RTH2			RTH3			RTH4			RLFE			RMFE			RSH1			RSH2			RSH3			RSH4			RLMAL			RMMAL			RCAL			RMTP1			RTOE			RMTP5		
		X1	Y1	Z1	X2	Y2	Z2	X3	Y3	Z3	X4	Y4	Z4	X5	Y5	Z5	X6	Y6	Z6	X7	Y7	Z7	X8	Y8	Z8	X9	Y9	Z9	X10	Y10	Z10	X11	Y11	Z11	X12	Y12	Z12	X13	Y13	Z13	X14	Y14	Z14	X15	Y15	Z15	X16	Y16	Z16	X17	Y17	Z17	X18	Y18	Z18	X19	Y19	Z19	X20	Y20	Z20	X21	Y21	Z21	X22	Y22	Z22	X23	Y23	Z23	X24	Y24	Z24	X25	Y25	Z25	X26	Y26	Z26	X27	Y27	Z27	X28	Y28	Z28	X29	Y29	Z29	X30	Y30	Z30	X31	Y31	Z31	X32	Y32	Z32	X33	Y33	Z33	X34	Y34	Z34	X35	Y35	Z35	X36	Y36	Z36

1273	5.08800	745.44641	1010.31262	297.02551	571.85498	947.63715	342.85535	729.55518	606.11206	376.42859	728.68231	544.07587	373.10641	654.81213	600.53656	388.93112	663.56708	540.21796	383.93616	729.32678	463.73190	374.02753	701.28271	437.92538	269.48972	907.30969	398.11420	356.61929	940.00043	364.39081	352.22714	869.60999	354.95657	378.22189	907.61749	327.06757	370.67352	1035.70825	228.80325	339.98679	1005.03992	214.67090	266.56409	1097.54089	268.35193	301.55042	1031.51147	79.08896	355.34625	992.53210	65.81361	305.75385	1011.92493	81.68928	263.96466	731.14581	1012.96021	182.90123	555.43054	979.73987	140.00266	614.33130	589.82452	109.77666	603.09619	529.86298	123.60586	551.27911	603.68927	100.32555	530.95551	546.53711	110.66288	523.60461	478.17853	129.17889	554.96265	491.38019	237.06297	568.17590	277.67761	122.44599	553.56671	232.78229	128.08562	506.99078	287.94824	117.10934	503.14563	244.51118	123.29011	480.48544	93.51101	159.53539	465.62402	106.71606	239.10811	538.77594	59.59504	205.30592	335.99945	73.70357	251.37675	313.54810	89.27660	211.04231	357.03445	42.63889	149.78050
1274	5.09200	740.35986	1010.85974	297.26675	565.33112	948.71033	342.27252	720.74963	604.98553	375.87598	719.03070	542.93750	372.57318	645.98535	600.38782	388.79059	653.87494	539.95038	383.74792	718.38257	463.14923	374.01099	690.68060	437.98340	269.03281	896.49463	399.43387	356.88583	929.54108	366.10663	352.44363	859.23096	355.84390	378.28934	896.91986	327.86746	370.34775	1026.83203	232.19196	340.12051	996.52002	217.61801	266.47876	1085.83215	273.63129	301.65601	1026.44873	82.49016	355.53061	987.19720	67.49779	306.40039	1006.41693	83.92273	264.28543	726.31250	1014.00153	183.11406	550.08850	981.06769	139.80890	611.45990	591.19080	109.16062	600.09399	530.83057	122.87717	547.82721	604.51935	100.01663	527.92444	547.11316	109.78714	520.92407	478.62228	128.62180	552.45178	492.15091	236.35315	566.95551	278.35025	121.73708	552.89404	233.38158	126.88290	505.47766	288.25644	116.69530	501.94617	244.79651	122.82593	480.26163	93.48909	159.37955	465.60269	107.30774	239.26204	538.68646	59.79885	205.19519	335.77740	73.27457	251.55367	313.31763	88.80918	211.26137	356.80457	42.41639	149.89288
1275	5.09600	735.39563	1011.42194	297.39484	560.55402	949.19025	342.03482	711.94208	603.98389	375.31622	709.39264	542.01648	372.02911	637.82770	600.97809	388.92966	644.28284	539.87604	383.55127	707.34363	462.71790	373.89987	680.29309	438.28998	268.51328	885.66266	400.81140	357.23880	919.06543	367.83942	352.69250	848.80579	356.74997	378.26862	886.74225	329.18314	370.29483	1017.72656	235.47296	340.24570	987.54706	220.41435	266.38739	1074.67578	278.91846	301.46869	1020.53058	85.94511	356.19476	981.81110	69.87187	306.75531	1000.16516	86.73047	264.69269	721.50140	1015.00085	183.29530	545.16217	982.38910	139.38399	607.56689	591.91602	108.40948	597.39685	532.03522	122.42905	544.57739	604.87854	98.60426	524.98895	547.53912	108.76216	518.58185	479.02344	128.03163	549.98474	492.88486	235.79086	565.42725	278.98135	121.55123	551.60730	233.90952	126.74325	504.02621	288.52255	116.32394	500.64551	245.06602	122.56174	480.08017	93.51153	159.22527	465.29758	107.41075	239.01077	538.42230	59.82505	205.09566	335.64810	72.92455	251.67677	313.10983	88.37188	211.39508	356.66107	42.21821	149.92085
1276	5.10000	730.51672	1011.95404	297.50378	555.87518	950.40649	341.33136	703.35510	603.30573	374.71304	699.59479	541.18097	371.44821	628.97540	601.03271	388.75375	634.52771	539.86816	383.33209	696.34692	462.43613	373.78656	669.81921	438.68353	267.93680	874.79962	402.16183	357.59839	908.90613	369.74554	352.82489	838.24725	357.60544	378.26749	876.50018	330.49536	370.24957	1008.50378	238.67662	340.43881	978.32239	223.17358	266.28149	1063.39771	283.06116	301.40717	1013.55658	89.19932	356.77231	975.25732	72.26219	307.57706	993.17139	89.47124	265.38022	716.85132	1015.88611	183.42595	540.33020	983.62830	138.92247	604.38434	592.80267	107.91820	594.51184	532.75317	121.98647	541.30664	605.39642	98.24342	522.21289	547.79028	107.88345	516.13049	479.35849	127.56747	547.28210	493.48157	235.31787	564.04840	279.53995	121.21278	550.30316	234.36844	126.75571	502.52127	288.77405	116.06877	499.54520	245.29608	122.33913	479.89847	93.52849	159.09816	465.37280	108.14990	239.04025	538.32428	59.99171	205.04251	335.51166	72.56387	251.78320	312.89972	87.91995	211.49757	356.49463	42.03899	149.94572
1277	5.10400	725.64685	1012.49768	297.53696	550.73682	951.23584	340.93753	693.99445	602.45270	374.25171	689.83081	540.54608	370.81949	620.04565	601.26434	388.57162	624.88776	540.06097	383.06308	685.31543	462.38675	373.57239	659.51294	439.22632	267.24240	863.85767	403.46216	357.94849	897.79688	371.11920	353.28702	827.60022	358.51370	378.15533	866.10553	331.75552	370.11426	999.32983	241.89256	340.57272	970.33875	224.33763	268.72186	1053.20850	287.31039	300.96936	1006.75018	92.97836	357.25497	967.75970	75.75961	308.46844	985.80902	92.09132	265.67395	712.05499	1016.74469	183.43636	535.93494	984.85358	138.24561	601.43280	593.77380	107.61153	591.83905	533.57892	121.71314	538.31024	605.70599	97.39978	519.60388	548.05701	107.16019	513.74054	479.65399	127.25228	546.11041	494.04611	234.78944	562.69098	280.13223	120.95645	549.25604	235.06961	126.78996	501.23889	289.03510	115.87793	498.41394	245.59103	122.10874	479.70923	93.55517	159.00237	465.11624	108.20702	238.92468	538.21924	60.14005	204.97310	335.37000	72.22261	251.87846	312.70505	87.46062	211.58626	356.34525	41.84695	149.95969
1278	5.10800	720.86255	1013.01874	297.46182	545.76813	952.16724	340.51700	684.95276	601.92444	373.72473	680.06512	540.11804	370.26141	611.02600	601.59430	388.37064	615.15247	540.36249	382.72321	675.14026	462.60321	373.31372	649.02332	439.79822	266.71588	852.88489	404.81650	358.29346	887.14539	372.78186	353.55905	817.12085	359.54770	378.13141	856.34613	333.57602	370.40060	990.12720	245.04512	340.61652	961.26624	227.07092	268.74860	1042.86560	290.69247	300.70950	998.53290	96.12018	357.93668	960.26538	78.46574	308.44238	977.49054	94.87290	266.65652	707.35419	1017.62952	183.35423	530.69562	985.76965	138.05809	598.57086	594.51721	107.25233	589.45013	534.52057	121.64851	535.61261	606.00555	95.92610	517.07867	548.22131	106.38364	511.50372	479.91089	126.89174	543.79895	494.52051	234.41672	561.72351	281.17319	120.27626	548.18500	235.53654	126.61999	499.86841	289.30145	115.69910	497.29095	245.80064	121.93567	479.47556	93.56699	158.93700	464.87421	108.22062	238.78810	538.13782	60.29841	204.89754	335.23453	71.81913	251.95418	312.55679	86.99474	211.72797	356.19983	41.69628	150.00035
1279	5.11200	716.09827	1013.51520	297.29474	541.67993	952.96204	340.17010	675.81989	601.59460	373.23035	670.23792	539.83643	369.62558	601.24280	601.35980	387.77908	605.43188	540.82141	382.38495	663.39960	462.74216	373.01328	638.84283	440.55328	265.94153	841.92603	406.09427	358.59683	876.38940	374.36627	353.90643	806.21106	360.35284	377.90140	845.83704	334.86340	370.33920	980.83185	248.04865	340.67490	952.13330	229.76089	268.72296	1033.36047	293.71561	300.40808	989.86481	99.22309	358.58597	951.44403	80.11605	309.92709	968.62567	97.52239	267.36807	702.63696	1018.36652	183.22856	526.01910	986.72412	137.69539	595.67273	595.19690	107.16306	586.96204	535.01581	121.42168	532.65271	606.24097	95.78904	513.91052	548.21503	105.93664	509.21237	480.07773	126.58842	541.50586	494.89337	234.26378	560.47485	281.48172	120.42585	547.16907	235.85475	126.59618	498.57834	289.47467	115.61627	496.31436	245.96443	121.87654	479.27524	93.58668	158.89645	464.89752	107.91658	238.18159	538.01782	60.37235	204.87941	335.08618	71.38718	252.14317	312.15546	86.64702	212.33136	356.07108	41.58053	150.04559
